<?xml version="1.0" encoding="utf-8"?>
<!-- Generator: Adobe Illustrator 22.0.1, SVG Export Plug-In . SVG Version: 6.00 Build 0)  -->
<svg version="1.1" id="Layer_1" xmlns="http://www.w3.org/2000/svg" xmlns:xlink="http://www.w3.org/1999/xlink" x="0px" y="0px"
	 viewBox="0 0 282.8 137.8" style="enable-background:new 0 0 282.8 137.8;" xml:space="preserve">
<style type="text/css">
	.st0{fill:#FFFFFF;}
</style>
<path class="st0" d="M115.1,48.4h-6.9l-7.1-13.2H101c0.2,2.1,0.3,3.7,0.3,4.8v8.5h-4.6V29.7h6.8l7,13.1h0.1
	c-0.1-1.9-0.2-3.4-0.2-4.6v-8.5h4.7V48.4z"/>
<path class="st0" d="M137.6,39c0,3.2-0.8,5.6-2.4,7.2c-1.6,1.6-3.9,2.5-7,2.5c-3,0-5.4-0.8-7-2.5s-2.4-4.1-2.4-7.2
	c0-3.1,0.8-5.5,2.4-7.2c1.6-1.6,4-2.5,7-2.5c3.1,0,5.4,0.8,7,2.5C136.8,33.4,137.6,35.8,137.6,39z M124.3,39c0,3.6,1.3,5.4,3.9,5.4
	c1.3,0,2.3-0.4,2.9-1.3c0.6-0.9,1-2.3,1-4.1c0-1.9-0.3-3.3-1-4.2c-0.6-0.9-1.6-1.3-2.9-1.3C125.6,33.5,124.3,35.3,124.3,39z"/>
<path class="st0" d="M146.5,41.5v6.8h-5.2V29.5h6.3c5.3,0,7.9,1.8,7.9,5.5c0,2.2-1.1,3.9-3.3,5l5.6,8.2h-5.9l-4.1-6.8h-1.3V41.5z
	 M146.5,37.7h1c1.8,0,2.7-0.8,2.7-2.4c0-1.3-0.9-1.9-2.7-1.9h-1V37.7z"/>
<path class="st0" d="M168.4,48.4h-5.2V33.8h-4.8v-4.1h14.7v4.1h-4.7V48.4z"/>
<path class="st0" d="M192.6,48.4h-5.2v-7.7h-6.1v7.7H176V29.6h5.3v7h6.1v-7h5.3L192.6,48.4L192.6,48.4z"/>
<path class="st0" d="M217.9,48.4h-6.2l-1.9-8.2c-0.1-0.3-0.2-1-0.4-2s-0.3-1.9-0.4-2.6c-0.1,0.6-0.2,1.2-0.3,2.1
	c-0.2,0.8-0.3,1.6-0.5,2.3s-0.8,3.5-1.9,8.4h-6.2l-4.8-18.8h5l2.1,9.4c0.5,2.1,0.8,3.7,1,5c0.1-0.9,0.3-2.1,0.6-3.6s0.6-2.7,0.8-3.7
	l1.7-7.1h4.8l1.7,7.1c0.3,1.1,0.6,2.5,0.9,3.9c0.3,1.5,0.5,2.6,0.6,3.3c0.1-1,0.4-2.6,0.9-4.9l2.1-9.4h5L217.9,48.4z"/>
<path class="st0" d="M236.9,48.4h-11.5V29.6h11.5v4.1h-6.3v3h5.8v4.1h-5.8v3.5h6.3V48.4z"/>
<path class="st0" d="M253.1,42.7c0,1.2-0.3,2.2-0.9,3.1c-0.6,0.9-1.5,1.6-2.6,2.1s-2.5,0.8-4,0.8c-1.3,0-2.4-0.1-3.2-0.3
	c-0.9-0.2-1.8-0.5-2.7-0.9V43c1,0.5,2,0.9,3.1,1.2s2.1,0.4,3,0.4c0.8,0,1.3-0.1,1.7-0.4c0.4-0.3,0.5-0.6,0.5-1
	c0-0.3-0.1-0.5-0.2-0.7c-0.1-0.2-0.4-0.4-0.7-0.6c-0.3-0.2-1.2-0.6-2.6-1.2c-1.3-0.6-2.2-1.1-2.8-1.6s-1.1-1.1-1.4-1.8
	c-0.3-0.7-0.5-1.5-0.5-2.4c0-1.7,0.6-3.1,1.9-4c1.3-1,3.1-1.5,5.3-1.5c2,0,4,0.4,6.1,1.3l-1.6,3.9c-1.8-0.8-3.4-1.2-4.7-1.2
	c-0.7,0-1.2,0.1-1.5,0.3s-0.5,0.5-0.5,0.9s0.2,0.7,0.6,1c0.4,0.3,1.5,0.8,3.2,1.6c1.7,0.7,2.8,1.5,3.5,2.3
	C252.8,40.4,253.1,41.4,253.1,42.7z"/>
<path class="st0" d="M264.8,48.4h-5.2V33.8h-4.7v-4.1h14.7v4.1h-4.7L264.8,48.4L264.8,48.4z"/>
<path class="st0" d="M113.7,63c-1.2,0-2.2,0.5-2.9,1.5c-0.7,1-1,2.4-1,4.1c0,3.6,1.4,5.4,4.3,5.4c0.9,0,1.7-0.1,2.5-0.3
	s1.6-0.5,2.4-0.8v4.3c-1.6,0.7-3.4,1-5.5,1c-2.9,0-5.2-0.8-6.7-2.5c-1.6-1.6-2.3-4-2.3-7.1c0-1.9,0.4-3.7,1.1-5.1
	c0.8-1.5,1.8-2.6,3.3-3.4c1.4-0.8,3.1-1.2,5-1.2c2.1,0,4.1,0.4,6,1.3l-1.6,4c-0.7-0.3-1.4-0.6-2.1-0.8C115.3,63.1,114.5,63,113.7,63
	z"/>
<path class="st0" d="M141,68.4c0,3.2-0.8,5.6-2.4,7.2c-1.6,1.6-3.9,2.5-7,2.5c-3,0-5.4-0.8-7-2.5s-2.4-4.1-2.4-7.2
	c0-3.1,0.8-5.5,2.4-7.2s4-2.5,7-2.5c3.1,0,5.4,0.8,7,2.5C140.2,62.9,141,65.3,141,68.4z M127.7,68.4c0,3.6,1.3,5.4,3.9,5.4
	c1.3,0,2.3-0.4,2.9-1.3c0.6-0.9,1-2.3,1-4.1c0-1.9-0.3-3.3-1-4.2c-0.6-0.9-1.6-1.3-2.9-1.3C129,62.9,127.7,64.8,127.7,68.4z"/>
<path class="st0" d="M153.1,77.9l-4-13.5H149c0.2,2.3,0.3,4.1,0.3,5.4V78h-4.6V59.2h7l4,13.3h0.1l4-13.3h7V78H162v-8.2
	c0-0.4,0-0.9,0-1.4s0.1-1.8,0.2-3.8h-0.1l-3.9,13.5h-5.1V77.9z"/>
<path class="st0" d="M179.5,77.9l-4-13.5h-0.1c0.2,2.3,0.3,4.1,0.3,5.4V78h-4.6V59.2h7l4,13.3h0.1l4-13.3h7V78h-4.8v-8.2
	c0-0.4,0-0.9,0-1.4s0.1-1.8,0.2-3.8h-0.2l-3.9,13.5h-5V77.9z"/>
<path class="st0" d="M214,59.1v11.3c0,2.5-0.7,4.4-2.2,5.7c-1.4,1.3-3.5,2-6.2,2c-2.6,0-4.7-0.7-6.1-2c-1.4-1.3-2.1-3.2-2.1-5.7V59
	h5.3v11c0,1.3,0.3,2.3,0.8,2.9c0.5,0.6,1.3,0.9,2.3,0.9c1.1,0,1.8-0.3,2.3-0.9c0.5-0.6,0.7-1.6,0.7-2.9V59L214,59.1L214,59.1z"/>
<path class="st0" d="M236.7,77.9h-6.9l-7.1-13.2h-0.1c0.2,2.1,0.3,3.7,0.3,4.8V78h-4.6V59.2h6.8l7,13.1h0.1
	c-0.1-1.9-0.2-3.4-0.2-4.6v-8.5h4.7V77.9z"/>
<path class="st0" d="M241,77.9V59.1h5.3v18.8H241z"/>
<path class="st0" d="M259.2,77.9H254V63.3h-4.7v-4.1H264v4.1h-4.7L259.2,77.9L259.2,77.9z"/>
<path class="st0" d="M273.8,66l3.3-7h5.7l-6.4,11.5v7.3h-5.3v-7.2L264.7,59h5.7L273.8,66z"/>
<path class="st0" d="M114.1,107.3h-5.2V88.5h11.5v4.1h-6.3v3.6h5.8v4.1h-5.8V107.3z"/>
<path class="st0" d="M141.9,97.9c0,3.2-0.8,5.6-2.4,7.2c-1.6,1.6-3.9,2.5-7,2.5c-3,0-5.4-0.8-7-2.5s-2.4-4.1-2.4-7.2
	c0-3.1,0.8-5.5,2.4-7.2c1.6-1.6,4-2.5,7-2.5c3.1,0,5.4,0.8,7,2.5C141.1,92.4,141.9,94.8,141.9,97.9z M128.6,97.9
	c0,3.6,1.3,5.4,3.9,5.4c1.3,0,2.3-0.4,2.9-1.3s1-2.3,1-4.1c0-1.9-0.3-3.3-1-4.2c-0.6-0.9-1.6-1.3-2.9-1.3
	C129.9,92.4,128.6,94.3,128.6,97.9z"/>
<path class="st0" d="M150.8,100.5v6.8h-5.2V88.5h6.3c5.3,0,7.9,1.8,7.9,5.5c0,2.2-1.1,3.9-3.3,5l5.6,8.2h-5.9l-4.1-6.8h-1.3V100.5z
	 M150.8,96.7h1c1.8,0,2.7-0.8,2.7-2.4c0-1.3-0.9-1.9-2.7-1.9h-1V96.7z"/>
<path class="st0" d="M175.6,107.3h-11.5V88.5h11.5v4.1h-6.3v3h5.8v4.1h-5.8v3.5h6.3V107.3z"/>
<path class="st0" d="M191.8,101.6c0,1.2-0.3,2.2-0.9,3.1c-0.6,0.9-1.5,1.6-2.6,2.1s-2.5,0.8-4,0.8c-1.3,0-2.4-0.1-3.2-0.3
	c-0.9-0.2-1.8-0.5-2.7-0.9v-4.5c1,0.5,2,0.9,3.1,1.2s2.1,0.4,3,0.4c0.8,0,1.3-0.1,1.7-0.4c0.4-0.3,0.5-0.6,0.5-1
	c0-0.3-0.1-0.5-0.2-0.7c-0.1-0.2-0.4-0.4-0.7-0.6c-0.3-0.2-1.2-0.6-2.6-1.2c-1.3-0.6-2.2-1.1-2.8-1.6s-1.1-1.1-1.4-1.8
	c-0.3-0.7-0.5-1.5-0.5-2.4c0-1.7,0.6-3.1,1.9-4c1.3-1,3.1-1.5,5.3-1.5c2,0,4,0.4,6.1,1.3l-1.6,3.9c-1.8-0.8-3.4-1.2-4.7-1.2
	c-0.7,0-1.2,0.1-1.5,0.3s-0.5,0.5-0.5,0.9s0.2,0.7,0.6,1c0.4,0.3,1.5,0.8,3.2,1.6c1.7,0.7,2.8,1.5,3.5,2.3
	C191.5,99.3,191.8,100.4,191.8,101.6z"/>
<path class="st0" d="M203.6,107.3h-5.2V92.7h-4.7v-4.1h14.7v4.1h-4.7L203.6,107.3L203.6,107.3z"/>
<path class="st0" d="M223.9,101.6c0,1.2-0.3,2.2-0.9,3.1c-0.6,0.9-1.5,1.6-2.6,2.1s-2.5,0.8-4,0.8c-1.3,0-2.4-0.1-3.2-0.3
	c-0.9-0.2-1.8-0.5-2.7-0.9v-4.5c1,0.5,2,0.9,3.1,1.2s2.1,0.4,3,0.4c0.8,0,1.3-0.1,1.7-0.4c0.4-0.3,0.5-0.6,0.5-1
	c0-0.3-0.1-0.5-0.2-0.7c-0.1-0.2-0.4-0.4-0.7-0.6c-0.3-0.2-1.2-0.6-2.6-1.2c-1.3-0.6-2.2-1.1-2.8-1.6s-1.1-1.1-1.4-1.8
	c-0.3-0.7-0.5-1.5-0.5-2.4c0-1.7,0.6-3.1,1.9-4c1.3-1,3.1-1.5,5.3-1.5c2,0,4,0.4,6.1,1.3l-1.6,3.9c-1.8-0.8-3.4-1.2-4.7-1.2
	c-0.7,0-1.2,0.1-1.5,0.3s-0.5,0.5-0.5,0.9s0.2,0.7,0.6,1c0.4,0.3,1.5,0.8,3.2,1.6c1.7,0.7,2.8,1.5,3.5,2.3
	C223.6,99.3,223.9,100.4,223.9,101.6z"/>
<path class="st0" d="M46.8,102.9c0.5-0.1,0.5-0.5,0.6-0.8c0.4-1.1,0.8-2.2,1.1-3.4c0.1-0.3,0-0.7,0-1.1c-0.3-1.6,0-3.2,0.2-4.8
	c0-0.2,0.1-0.3,0.1-0.4c0.2-0.5,0.6-0.7,1.1-0.8c0.4-0.1,0.9,0.4,1,0.8c0.1,0.2,0.1,0.5,0.1,0.8s0.1,0.5,0.1,0.8
	c0.9,0.3,1.6,0.7,1.7,1.7c0.6,0.1,1.3,0.1,1.7,0.6c0.1,0.1,0.3,0,0.4,0c-0.3,0.4-0.2,0.8-0.1,1.3c0.5,2.4,0.8,4.8,0.4,7.2
	c-0.4,3.1-1.4,6.1-2.9,8.9c-0.5,0.9-1.1,1.6-1.9,2.2c-0.3,0.2-0.6,0.5-1,0.9c0.3,0.2,0.6,0.4,0.8,0.6c0.5-0.3,0.9-0.6,1.4-0.8
	c0.9-0.4,1.6-1.1,2-2c1.2-2.3,1.9-4.7,2-7.2c0-0.3,0-0.6,0.1-0.9c0.2-0.5,0.6-0.7,1.1-0.8c0.4-0.1,0.7,0.2,0.8,0.6
	c0.1,0.2,0.3,0.4,0.4,0.6c0,1.2,0,2.5-0.4,3.7c-0.3,1.1-0.6,2.3-1.1,3.4c-0.5,1.2-1.5,2.2-2.6,3c-0.8,0.6-1.6,1.1-2.5,1.7
	c1.3,1.5,2.6,3.1,4.3,4.2c0.9-1.7,1.5-3.4,2-5.2c-0.3-0.1-0.5-0.1-0.6-0.2c-0.5-0.4-0.9-1-1.2-1.6c0.4-0.5,0.8-1,1.2-1.5
	c0.4,0.4,0.8,0.7,1.2,1c0.3-0.6,0.3-1-0.4-1.3c-0.5-0.2-0.4-0.6-0.1-1.1c0.2,0.2,0.5,0.3,0.8,0.5c0.4-1.6,0.5-3.1,0.5-4.6
	c-0.3-0.2-0.5-0.3-0.8-0.4c0-0.4,0-0.9-0.1-1.4c0-0.1-0.2-0.2-0.3-0.3c0.1-0.2,0.2-0.4,0.2-0.6c0.3,0,0.5-0.1,0.8-0.1
	c0-0.8,0.1-1.5-0.2-2.3c-1.2-0.2-2.2-0.9-3.2-1.6c0.1-0.6-0.2-1.2,0.1-1.8c0.7,0,1,0.8,1.8,0.6c-0.1-0.1-0.2-0.2-0.3-0.3
	c-0.5-0.4-1.3-0.6-1.6-1.2c-0.4-0.6-0.4-1.4-0.6-2c-0.1-0.4-0.4-0.8-0.3-1.3c1-0.1,1.9-0.1,2.8,0.5c0,0.4,0.1,0.7,0.1,1
	c0,0.1,0.2,0.1,0.4,0.2c0,0.4,0,0.8,0,1.2c-0.7-0.1-0.7-0.1-1.3,0.2c0.6,0.3,1.1,0.6,1.6,1c0.1-0.5,0.3-1-0.4-1.1
	c0.2-0.4,0.2-0.8,0-1.2c0-0.1-0.1-0.2-0.1-0.3c0-0.5,0.3-0.8,0.6-0.6c0.8,0.5,1.8,0.3,2.6,0.6s1.7,0.5,2.5,0.8
	c1.7,0.5,3.3,0.7,5.1,0.4c0-0.3,0-0.5,0-0.8c0-0.5-0.3-0.8-0.8-1c-2.4-0.7-4.6-1.7-6.9-2.8c-3.4-1.6-6.4-3.8-9.1-6.4
	c-0.3-0.3-0.6-0.6-0.8-0.9c-0.4-0.7-1.1-1.1-1.9-1.3c-0.8-0.2-1.5-0.4-2.2-0.6c-1.7-0.5-3.2-1.3-4.4-2.5c-0.3-0.3-0.6-0.7-0.8-1.1
	c-0.3-0.6-0.1-1.1,0.3-1.6c0.4-0.4,0.8-0.4,1.3-0.3c0.6,0.2,1.3,0.4,1.9,0.7c0.8,0.3,1.6,0.7,2.4,1c0.7,0.3,1.3,0.5,2.1,0.5
	c0.6,0,1.1,0.2,1.5,0.6c0.2,0.2,0.5,0.4,0.8,0.5c1.5,0.5,2.9,1.2,4.4,1.5c2.3,0.5,4.5,1.2,6.7,1.8c0.7,0.2,1.4,0.3,2.1,0.5
	c0.2,0,0.5,0,0.8,0c-0.1-1.3-0.1-2.5-0.8-3.5c-0.2-0.1-0.3-0.1-0.4-0.1c-2.3,0.1-4.5-0.5-6.6-1.2c-2.7-1-5.3-2.3-7.8-3.7
	c-3.2-1.8-5.9-4.1-8.3-6.9c-0.7-0.9-1.3-1.8-1.7-2.9c-0.2-0.8,0.2-1.4,0.7-1.9s1.1-0.5,1.7-0.2c0.4,0.2,0.8,0.5,1.1,0.8
	c0.5,0.5,1,0.9,1.4,1.5c2.1,2.7,4.5,5,7.3,6.9c1.5,1,3.2,1.9,4.8,2.8c1.2,0.7,2.5,1.2,3.8,1.8c0.7,0.3,1.4,0.7,2.1,1.1
	c0.4,0.2,0.8,0.2,1.2,0c0.1-1.3-0.8-2.2-0.9-3.4c-3.4-0.8-6.3-2.5-9.1-4.2c-0.7-0.4-1.4-0.8-2.2-1.2c-1.8-0.9-3.3-2-4.9-3.2
	c-1.2-0.9-2.4-1.8-3.6-2.7c-0.8-0.6-1.5-1.5-2-2.3c-0.2-0.2-0.3-0.6-0.3-0.9c0-0.7,0.6-1.3,1.3-1.1c0.4,0.1,0.8,0.2,1.2,0.4
	c0.9,0.4,1.7,1,2.4,1.6c3.5,3,7.2,5.8,10.8,8.5c0.4,0.3,0.9,0.5,1.3,0.8c0.6,0.4,1.2,0.7,1.8,1.1c0.9,0.6,0.9,0.6,2.1,0.8
	c0.2-0.2,0.1-0.4,0-0.7c-0.5-1.6-1.2-3.2-1.6-4.9c-0.1-0.4-0.3-0.9-0.5-1.4c-0.9-0.2-1.8-0.4-2.7-0.6c-2.8-0.6-5.4-1.8-7.7-3.4
	c-0.7-0.5-1.2-1.1-1.8-1.7c-0.2-0.2-0.4-0.5-0.4-0.8c-0.2-0.6,0.1-1,0.6-1.2c0.6-0.3,1.2-0.3,1.8,0s1.3,0.6,1.8,1.1
	c1.9,1.9,4.2,3.1,6.5,4.4c0.4,0.2,0.8,0.6,1.3,0.4c0.3-0.4,0-0.7-0.1-1c-0.1-0.4-0.3-0.8-0.4-1.2c-0.1-0.3-0.1-0.7-0.2-1.1
	c-0.1-0.3-0.2-0.7-0.3-0.9c-2.2-0.5-4.3-1.1-6.4-1.6c-0.7-0.2-1.4-0.5-2-0.8c-1.8-0.8-3.6-1.7-5.5-2.6c-1.5-0.7-3-1.7-4.3-2.8
	c-0.4-0.4-0.8-0.8-1.1-1.3c-0.1-0.2-0.1-0.5,0-0.7c0.1-0.3,0.4-0.5,0.8-0.4c0.3,0.1,0.6,0.2,0.9,0.2c2.5,0.8,4.8,2.1,7.1,3.3
	c1.6,0.9,3.2,1.9,4.9,2.7s3.4,1.5,5.2,2.2c0-0.4,0.1-0.6,0.1-0.9c-1.9-0.5-3.5-1.3-5.2-2.1c-1.4-0.7-2.9-1.4-4.3-2.1
	c-2.3-1.1-4.4-2.4-6.5-4c-0.6-0.4-1.2-0.9-1.7-1.3c-0.5-0.4-1-0.7-1.2-1.3c0.3-0.8,0.9-0.9,1.5-0.7s1.2,0.4,1.7,0.7
	c2.2,1.3,4.3,2.7,6.4,4.1c1.5,1,3.1,1.9,4.6,2.8c1,0.6,2,1.1,3,1.6c0.4-1,0.4-1.4,0-2.4c-0.2-0.6-0.7-0.8-1.1-1
	c-2-0.7-3.8-1.8-5.9-2.4c-0.9-0.2-1.7-0.7-2.5-1.1c-2.5-1.4-5.1-2.8-7.4-4.4c-0.4-0.3-0.8-0.5-1.2-0.8c-1.3-0.7-2-1.9-2.4-3.3
	c-0.2-0.9,0.8-1.9,1.7-1.6c0.5,0.1,1,0.4,1.6,0.6c0.2-0.1,0.5-0.3,0.9-0.3c0.3-0.1,0.6,0,1.1,0c-0.2-0.3-0.3-0.5-0.5-0.7
	c-0.5-0.4-0.9-0.8-1.4-1.2c-0.6-0.5-1.1-1.1-1.5-1.8c0.3-0.6,0.8-0.8,1.4-0.6c0.4,0.1,0.8,0.3,1.1,0.5c0.4,0.1,0.8,0.3,1.1,0.4
	c0.1,0.1,0.2,0.3,0.4,0.4c0.1,0.1,0.2,0.1,0.3,0.1c0-0.1,0-0.1,0-0.2c-0.3-0.1-0.5-0.2-0.8-0.3c0-0.4-0.3-0.5-0.5-0.7
	c-1-0.9-2-1.8-3-2.7c-0.5-0.5-1-1.2-1.4-1.9c-0.3-0.4-0.4-0.9,0-1.3c0.4-0.4,0.8-0.4,1.3-0.3c0.8,0.2,1.5,0.4,2.1,0.9
	c0.5,0.4,1,0.7,1.5,1.1c1.8,1.5,3.6,3,5.3,4.5c1.6,1.4,3.3,2.7,4.9,4c0.7,0.5,1.4,1.1,2.2,1.4c0.4-0.3,0.1-0.7,0.1-1
	c0-1.3-0.6-2.1-1.7-2.9c-1.6-1.1-3.2-2.4-4.7-3.8c-1.8-1.7-3.7-3.3-5.6-4.9c-1.8-1.5-3.4-3.3-4.8-5.2c-0.2-0.3-0.4-0.5-0.6-0.7
	c-0.5-0.5-0.6-1.2-0.7-1.8c0-0.2,0.1-0.5,0.3-0.7c0.5-0.5,1.1-0.7,1.8-0.4c0.8,0.3,1.4,0.9,1.9,1.5c1.2,1.4,2.4,2.8,3.6,4.3
	C46.1,30,49,33,51.9,36c0.6,0.6,1.1,1.2,1.6,1.9c0.5-1.1,0.4-1.6-0.3-2.3c-0.8-0.7-1.7-1.4-2.5-2.1c-0.9-0.9-1.8-2-2.8-2.9
	c-0.7-1.6-2.3-2.8-2.7-4.7c-0.1-0.4-0.5-0.8-0.8-1.1c-0.6-0.6-1.3-1.1-1.9-1.6c-1.4-1.1-2.4-2.4-3.4-3.8c-0.3-0.4-0.5-0.9-0.7-1.4
	s0.4-0.9,0.8-0.8c0.3,0.1,0.6,0.2,0.8,0.4c0.9,0.6,1.9,1.1,2.7,1.8c2.1,1.8,4.2,3.7,6.3,5.5c1,0.9,2.1,1.7,3.2,2.5
	c0.1,0.1,0.4,0.2,0.6,0.3c0.3-1.2-0.1-2.2-0.2-3.2c-0.2-0.1-0.3-0.2-0.5-0.2c-4.4-1.5-8-4-10.7-7.8c-0.8-1.1-1.6-2.2-2.4-3.3
	c-0.8-1.1-1.1-2.3-1.2-3.6c-0.1-0.7,0.6-1.2,1.3-0.7c0.6,0.4,1.1,0.9,1.5,1.5c0.6,0.8,1.1,1.6,1.7,2.4c1.9,3,4.3,5.7,6.8,8.2
	c0.8,0.8,1.7,1.6,2.8,1.9c0.1,0,0.3,0,0.5,0c0.1-0.1,0.2-0.3,0.2-0.4c0-0.4,0-0.7,0-1c-0.1-0.1-0.2-0.2-0.3-0.2
	c-2.7-1.1-4.5-3.2-6.2-5.4c-0.6-0.8-1.1-1.8-1.6-2.7c-0.4-0.7-0.6-1.4-0.6-2.2c0-0.3,0.1-0.7,0.2-1.1c0.9,0.2,1.4,0.7,1.9,1.4
	c0.7,1,1.3,2,2,2.9c1.3,1.8,2.6,3.6,4.2,5.1c0.1,0.1,0.2,0.2,0.5,0.3c0-0.3,0.1-0.5,0-0.6c-1-1.7-2-3.4-3-5
	c-1.2-2.1-2.1-4.4-2.4-6.8c-0.1-0.6,0.1-1,0.7-1.2c0.6,0.2,0.8,0.7,1,1.2c0.4,0.8,0.7,1.6,1,2.4c0.4,0.9,0.6,1.8,1.5,2.8
	c-0.1-0.6,0-1.1-0.1-1.4c-0.6-2.3-0.2-4.6,0.4-6.9c0.2-0.7,0.4-1.5,0.7-2.2c0.3-0.8,0.7-1.5,1.6-1.8C54.4,0,54.7,0,55,0.2
	c0.3,0.2,0.4,0.6,0.3,1c-0.1,0.3-0.2,0.6-0.4,0.8c-0.4,0.6-0.7,1.2-1.1,1.9c-0.5,0.8-0.7,1.6-0.8,2.5c-0.3,1.6-0.3,3.2,0,4.8
	c0.1,0.3,0.2,0.5,0.3,1c0.3-0.4,0.5-0.6,0.6-0.9c1.1-2.4,2.5-4.5,3.8-6.7c0.5-0.9,1.2-1.5,2.1-2c0.7-0.4,1.3-0.4,1.9,0.1
	c0.6,0.5,0.8,1.1,0.6,1.8C62.2,5,62,5.5,61.8,6c-0.1,0.3-0.2,0.6-0.3,1c0.7,0.2,1.1-0.4,1.8-0.4c0.7,0.4,1,1,0.7,1.9
	c-0.7,2.2-1.8,4.2-3.5,5.8c-0.8,0.8-1.6,1.5-2.4,2.2c-0.9,0.7-1.9,1.2-3,1.9c-0.2,0.3-0.2,0.7,0,1.2c0.1,0,0.2,0,0.3,0
	c0.1-0.1,0.3-0.1,0.4-0.2c3-2.4,5.9-4.9,8.1-8c0.4-0.5,0.8-1.1,1.2-1.6C65.4,9.5,65.7,9.2,66,9c0.3-0.2,0.6-0.2,0.9,0
	c0.8,0.6,1.1,1.5,0.7,2.2c-0.3,0.6-0.6,1.2-1,1.8c-0.4,0.6-0.8,1.1-1.3,1.7c0.3,0,0.5-0.1,0.6-0.1c0.9,0,1.4,0.4,1.3,1.3
	c-0.1,0.6-0.2,1.2-0.4,1.8c-0.6,2.1-1.9,3.9-3.4,5.4c-1.9,1.8-5.4,4.1-7.9,4.9c0,0.2-0.2,0.3-0.2,0.5c0,0.7,0.2,0.9,0.8,0.9
	c0.8,0,1.5-0.2,2.2-0.6c0.8-0.5,1.5-1.1,2.3-1.6c0.8-0.6,1.6-1.3,2.4-1.9c0.9-0.7,1.6-0.3,1.7,0.7c0,0.2,0,0.5,0,0.8
	c0.2-0.1,0.4-0.1,0.5-0.2c1.5-1.3,3.1-2.6,4.3-4.2c0.2-0.2,0.3-0.4,0.5-0.6c0.5-0.6,1.5-0.4,1.8,0.4c0.3,0.9,0.2,1.9-0.4,2.7
	c-0.7,0.9-1.4,1.7-2.2,2.4c-0.7,0.7-1.5,1.2-2.3,1.8c-0.3,0.2-0.6,0.5-0.8,0.8c-0.5,1.4-1.7,2.3-2.8,3.3c-1.5,1.4-3.3,2.5-5.3,3
	c-0.3,0.1-0.6,0.2-0.9,0.3c-1,0.4-1.1,0.5-0.7,1.8c1.3-0.4,2.5-0.9,3.7-1.6c3.1-1.8,5.7-4.2,8.2-6.8c0.7-0.8,1.4-1.5,2.1-2.2
	c0.5-0.6,1.2-1,1.9-1.3c0.4-0.2,0.9-0.3,1.3,0.1c0.4,0.4,0.5,0.9,0.3,1.4c-0.3,0.6-0.6,1.2-0.9,1.8c-0.3,0.5-0.7,1-1.1,1.6
	c0.4,0.3,0.8,0.5,1.2,0.8c0.4-0.4,0.8-0.8,1.2-1.1c0.3-0.2,0.6-0.4,1-0.4c0.6-0.1,1.1,0.4,1.1,1c0,0.3,0,0.6-0.1,0.9
	c-0.3,0.9-0.7,1.8-1.4,2.6c-0.6,0.7-1.1,1.4-1.7,2.1c0.2,0.2,0.4,0.4,0.5,0.6c0.3,0.4,0.4,0.9,0.3,1.5c-0.1,0.4-0.2,0.8-0.4,1.2
	c-0.8,1.2-1.6,2.4-2.8,3.3c-1.5,1.1-3.1,2.2-4.8,3.1c-0.5,0.3-1.1,0.5-1.7,0.7c-1.7,0.4-3.4,0.8-5.1,1.2c-0.2,0.1-0.5,0.2-0.7,0.3
	c-0.1,0-0.1,0.2,0,0.3c0,0.1,0.1,0.2,0.2,0.2c0.2,0,0.4,0.1,0.6,0c1.3-0.2,2.6-0.3,3.8-0.6c2.1-0.4,4.1-1.2,6-2
	c0.3-0.1,0.6-0.4,0.8-0.7c1.5-1.5,2.9-3.2,4.2-4.9c0.9-1.2,1.9-2.3,3-3.3c0.5-0.5,1.2-0.9,1.8-1.3c0.4-0.3,0.8-0.1,1.1,0.1
	c0.7,0.6,0.9,1.5,0.3,2.3c-0.5,0.8-1.1,1.5-1.7,2.2c-0.3,0.4-0.6,0.7-0.9,1.2c0.5,0.2,0.9,0.1,1.3,0.1c0.5,0,1,0.1,1.5,0.4
	c0.6,0.5,0.7,1.1,0.1,1.6c-0.6,0.5-1.2,0.9-1.9,1.4c-0.3,0.2-0.5,0.3-0.8,0.4c0,0.7,0.1,1.5,0.1,2.3c0.2,0.2,0.5,0.5,0.8,0.8
	c0.2,0,0.3-0.1,0.5-0.1c0.5-0.2,1.1-0.4,1.6-0.5c0.8-0.1,1.3,0.5,1,1.3c-0.2,0.5-0.5,1-0.8,1.5c-0.9,1.4-2.1,2.6-3.3,3.7
	c-1.2,1.1-2.5,2.1-4,3c-1.7,1-3.4,2.2-5.1,3.3c-1.7,1.1-3.5,1.8-5.3,2.4c-0.3,0.1-0.7,0.2-1,0.3c0,1.4,0,1.7,0.7,3
	c0.7-0.1,1.2-0.5,1.7-0.9c2.7-1.9,5.4-3.8,7.9-6c1.9-1.6,3.7-3.3,5.6-4.9c0.4-0.3,0.8-0.7,1.2-1c0.2-0.2,0.5-0.4,0.8-0.5
	c0.7-0.4,1.3-0.4,1.7,0c0.6,0.5,0.7,1.2,0.3,2c-0.4,0.7-0.9,1.4-1.4,2c-0.3,0.4-0.7,0.7-0.9,1c-0.2,0.2-0.4,0.6-0.3,0.8
	c0.1,0.5-0.1,0.9-0.4,1.3c-0.7,1.2-1.6,2.2-2.5,3.1c-1.6,1.6-3.1,3.2-4.9,4.5c-2,1.4-4.2,2.7-6.6,3.4c-0.2,0.1-0.4,0.2-0.7,0.3
	c0,0.6,0.2,1.2,0.5,1.7c0.9-0.1,1.5-0.5,2.2-0.8c2.4-1.2,4.6-2.8,6.7-4.5c1.8-1.5,3.5-3,5.1-4.7c1.1-1.2,2.3-2.2,3.5-3.3
	c0.5-0.4,1.1-0.8,1.7-1.1c0.6-0.3,1.1-0.1,1.5,0.4s0.5,1.1,0.3,1.8c-0.4,1.1-0.9,2.2-1.8,3c-0.6,0.6-1.2,1.3-1.9,1.8
	c-1.8,1.4-3.4,3.2-5,4.8c-1.2,1.2-2.5,2.3-4,3.2c-2,1.2-3.9,2.3-6.2,2.9c-0.3,0.1-0.6,0.2-0.8,0.4c0.1,0.7,0.2,0.8,0.6,0.7
	c1.9-0.5,3.8-1.1,5.5-2c2.6-1.3,5-2.9,7.3-4.6c1.6-1.2,3-2.6,4.4-3.9c0.8-0.7,1.6-1.5,2.7-1.8c1-0.2,1.7,0,2.3,0.8
	c0.3,0.4,0.5,0.7,0.9,1.1c0.8,0.7,0.8,1.3,0.2,2.2s-1.3,1.9-2.1,2.7c-1.8,1.8-3.7,3.6-5.5,5.4c-1.7,1.6-3.6,2.9-5.6,4.1
	c-2.2,1.2-4.4,2.3-6.7,3.2c-0.5,0.2-1.1,0.2-1.7,0.3c0,0.8,0.3,1.5,0.6,2.2c0.6,0.2,1.1-0.1,1.7-0.3c1.9-0.7,3.7-1.5,5.4-2.7
	c1.5-1,2.9-1.9,4.4-2.9c1.9-1.2,3.5-2.8,5.1-4.3c0.6-0.6,1.2-1.1,1.9-1.5c0.5-0.3,1-0.5,1.6-0.7c0.5-0.2,0.9,0,1.3,0.3
	c0.4,0.4,0.4,1,0.2,1.4c-0.1,0.3-0.4,0.6-0.7,0.9c-1.1,1.1-2.3,2.1-3.5,3.1c-4.1,3.2-8.7,5.5-13.6,7.2c-0.7,0.2-1.5,0.4-2.2,0.5
	c-0.3,0.1-0.7,0.2-1.1,0.3c0.1,1.1,0.3,2.2,0.6,3.3c0.2,0,0.5,0,0.7-0.1c2.9-1.2,5.7-2.4,8.4-4c1.2-0.7,2.4-1.6,3.5-2.5
	c1.9-1.7,3.9-3.4,5.8-5.1c0.5-0.4,1.1-0.8,1.7-1.1c0.3-0.2,0.6-0.3,0.9-0.3c0.7-0.1,1.1,0.2,1.2,0.9c0.1,1.1-0.3,1.9-1,2.7
	s-1.5,1.6-2.4,2.2c-5.1,3.8-10.7,6.5-16.7,8.2c-0.4,0.1-0.9,0.2-1.3,0.4c-0.1,0-0.2,0.2-0.3,0.3c1.2,0.3,2.2,0.3,3.2,0.1
	c3.3-0.7,6.3-2.3,9.1-4.1c0.6-0.4,1.1-0.7,1.7-1c0.4-0.2,0.8-0.4,1.3-0.5c0.6-0.2,1,0.4,0.8,0.9c-0.3,0.9-0.8,1.6-1.5,2.1
	c-0.8,0.5-1.6,0.9-2.4,1.4c-0.2,0.1-0.5,0.1-0.5,0.4c-0.1,0-0.2,0.1-0.4,0.1c0,0,0.1,0.1,0.1,0c0.1,0,0.2-0.1,0.2-0.2
	c1.2-0.1,2.4-0.2,3.5-0.3c0.7-0.1,1.2-0.5,1.8-0.9c1.9-1.4,3.8-2.9,5.9-4c0.1,0,0.2-0.1,0.3-0.1c0.6-0.3,1.1-0.5,1.8-0.3
	c0.5,0.2,0.6,0.3,1,1.5c-0.9,1.2-2.2,1.9-3.3,3.1c1,0.4,1.5,1.4,2.7,1.5c0.8,0.1,1,0.8,0.6,1.6c-0.3,0.6-0.8,1-1.4,1.4
	c-1.7,1.1-3.4,2.1-5.3,2.9c-0.5,0.2-1,0.3-1.4,0.8c0.8,0.2,1.4,0.1,1.9-0.1c0.5-0.1,0.9,0,1.2,0.5c0.3,0.4,0.2,0.9,0,1.3
	c-0.1,0.2-0.3,0.4-0.5,0.6c-1.1,0.8-2.3,1.6-3.7,2c-2.3,0.5-4.5,1.1-6.8,1.6c-2.4,0.5-4.9,0.6-7.4,0.4c-0.5,0-0.9-0.2-1.4,0.1
	c-0.2,1-0.3,2-0.1,3.2c0.3,0,0.6,0.1,0.9,0.1c3.8,0.2,7.6,0,11.4-0.8c0.9-0.2,1.8-0.4,2.7-0.7c0.6-0.2,1,0.1,1.4,0.5
	s0.4,0.9,0.2,1.3c-0.3,0.7-0.7,1.2-1.6,1.3c-1,0.1-1.9,0.3-2.9,0.4c-3,0.3-6,0.5-9,0c-1.1-0.2-2.3-0.1-3.5-0.1
	c-0.5,1.1-0.5,2.4-0.8,3.6c-0.3,1.2-0.6,2.4-0.7,3.7c2.3-0.2,4.5-0.7,6.6-1.1c2.5-0.5,4.9-1.3,7.3-2.1c0.8-0.2,1.5-0.6,2.3-0.9
	c0.9-0.3,1.5,0.1,1.6,1.1c0,0.6-0.3,1.1-0.7,1.5c-1.9,0.5-3.9,1.1-5.8,1.5c-2.1,0.4-4.3,0.8-6.4,1.1c-0.9,0.1-1.9,0.1-2.8-0.2
	c-0.1,0-0.3-0.1-0.4-0.1c-1.5-0.2-1.8,0-2.4,1.5c-0.9,2.1-1.8,4.2-2.9,6.1c-1.5,2.5-3.1,5-4.8,7.4c-0.3,0.5-0.7,1-1.1,1.5
	c-0.2,0.2-0.4,0.4-0.6,0.4c-0.4,0.2-2.6,0-3.4-0.2c0.3-0.7,0.8-1.4,1.3-1.9c1.2-1.2,2-2.7,2.8-4.3c-0.5-0.4-1-0.7-1.4-1.1
	c-1.4-1.2-2.8-2.5-4.1-3.7c-0.4-0.4-0.8-0.8-1.3-1.1c-0.4-0.3-0.8-0.6-1.1-1c-0.2-0.3-0.6-0.5-1-0.8c-1.2,0.5-2.4,0.9-3.7,1.3
	c-3.2,1.1-6.5,2-9.9,2.2c-1,0-2-0.1-2.9-0.2c-0.2,0-0.4-0.2-0.4-0.4c-0.1-0.3,0.1-0.5,0.4-0.6c0.3-0.1,0.7-0.2,1.1-0.2
	c3.6-0.4,7.3-0.9,10.8-1.7c1.3-0.3,2.5-0.7,3.8-1.1c-0.6-0.7-1.2-1.3-1.9-1.8c-1,0.3-1.9,0.6-2.9,0.9c-2.7,1-5.4,2-8.3,2.5
	c-1,0.2-1.9,0.5-2.8,0.8c-1.1,0.3-2.2,0.6-3.3,0.6c-0.4,0-0.7,0.1-1.1,0.1c-2.1,0.4-4.1,0.2-6.2,0c-0.5-0.1-0.9-0.2-1-0.8
	c-0.1-0.4,0.3-0.8,1-1c0.7-0.1,1.3-0.2,2-0.3c1-0.1,2-0.2,2.9-0.3c1-0.1,1.9-0.4,2.8-0.8c1.9-0.9,4-1.7,6-2.6
	c0.9-0.4,1.7-0.8,2.4-1.6c-0.2,0.1-0.5,0.1-0.7,0.2c-1.3,0.4-2.6,0.9-4,1.2c-2.7,0.6-5.3,1.2-8.1,1.4c-0.9,0.1-1.9,0-2.8-0.1
	c-0.2,0-0.5-0.3-0.5-0.5s0.1-0.5,0.3-0.7c0.1-0.1,0.3-0.3,0.5-0.3c0.5-0.1,1-0.2,1.5-0.3c5.1-0.4,10-1.3,14.9-2.9
	c0.4-0.1,0.8-0.2,1.2-0.3c0.3-0.1,0.5-0.2,0.9-0.4c-0.7-1-1.5-1.7-2.3-2.5c-0.3,0.1-0.6,0.2-0.9,0.3c-1.9,1-3.8,1.8-5.8,2.4
	c-2.5,0.8-5,1.4-7.5,1.8c-2,0.3-4,0.5-6,0.7c-0.9,0.1-1.7-0.2-2.6-0.3c-0.4-0.1-0.7-0.3-0.7-0.7c0-0.3,0.2-0.6,0.5-0.8
	c0.6-0.4,1.2-0.7,1.9-0.9c5.1-1.4,10.2-2.6,15.4-3.7c1-0.2,2-0.5,3-0.7c0.2-0.1,0.5-0.2,0.8-0.3c-0.6-1-1.3-1.8-2.1-2.5
	c-0.2,0.2-0.5,0.3-0.7,0.4c-0.9,0.8-2,1.3-3.1,1.7c-2.8,1-5.7,1.8-8.7,2.2c-2.9,0.4-5.7,0.8-8.6,0.6c-0.7-0.1-1.3-0.1-1.9-0.5
	c0.1-0.6,0.5-0.8,1-0.9c0.6-0.2,1.2-0.3,1.8-0.3c1.2-0.1,2.4-0.2,3.5-0.3c2.6-0.3,5.1-0.5,7.7-1c2.5-0.5,4.9-1.2,7.2-2.2
	c0.2-0.1,0.3-0.2,0.6-0.3c-0.6-0.9-1.3-1.6-2-2.2c-0.1,0-0.3,0-0.3,0.1c-1.3,1.4-3,2.1-4.8,2.8c-2.4,0.9-4.9,1.7-7.4,2.2
	c-0.6,0.1-1.1,0.2-1.7,0.3c-2.1,0.2-4.2,0.6-6.3,0.4c-0.4,0-0.7-0.1-1-0.2c-0.4-0.2-0.5-0.8-0.1-1c0.2-0.1,0.3-0.2,0.5-0.3
	c0.4-0.1,0.9-0.3,1.4-0.3c2.4-0.3,4.8-0.8,7.1-1.4c3.5-0.8,6.9-1.7,10.4-2.6c0.5-0.1,1-0.2,1.5-0.6c-0.4-0.7-1-1.2-1.7-1.7
	c-0.3,0.1-0.5,0.3-0.8,0.4c-1.2,0.7-2.4,1.4-3.6,2.1c-0.4,0.2-0.9,0.4-1.3,0.5c-2.1,0.5-4.1,0.9-6.2,1.4c-0.8,0.2-1.5,0-2.3-0.1
	c-0.2-0.1-0.5-0.2-0.7-0.3c-0.3-0.2-0.5-0.5-0.4-0.9c0.1-0.3,0.3-0.5,0.7-0.6c0.7-0.1,1.3-0.2,2-0.3c3.2-0.2,6.2-0.8,9.3-1.7
	c0.9-0.3,1.7-0.7,2.5-1.4c-0.3-0.3-0.5-0.6-0.8-0.9c-2.6,1.5-5.3,2.2-8.2,2.5c-1.7,0.2-3.4,0.3-5.1,0.5c-0.6,0.1-1-0.2-1.4-0.6
	c-0.3-0.4-0.2-1,0.2-1.2c0.4-0.2,0.8-0.3,1.2-0.3c1.3-0.1,2.7-0.2,4-0.3c1.8-0.2,3.6-0.5,5.4-0.7c1-0.1,1.9-0.3,2.9-0.7
	c-0.6-1.1-1.4-2-2.2-3c-2.1,1.6-4.6,2-7.1,2.3c-0.9,0.1-1.7,0.3-2.6,0.4c-2.1,0.3-4.3,0.7-6.4,0.7c-0.7,0-1.3,0-2-0.1
	c-0.3,0-0.6-0.1-0.6-0.5c0-0.3,0.2-0.6,0.5-0.6c0.8-0.1,1.5-0.3,2.3-0.3c1.5,0,3-0.5,4.6-0.6c-0.1-0.5-0.5-0.4-0.8-0.4
	c-1.3,0-2.6-0.1-3.8-0.5c-0.5-0.2-0.9-0.4-1.4-0.7c-0.2-0.1-0.3-0.4-0.4-0.6c0.3-0.6,0.8-0.5,1.3-0.5c1.1,0.1,2.1,0.3,3.2,0.4
	c0.6,0.1,1.2,0.1,1.9,0.1c2.2-0.1,4.3-0.1,6.5-0.3c1.1-0.1,2.2-0.1,3.3-0.6c-0.1-0.2-0.1-0.5-0.2-0.7c-0.3-0.4-0.6-0.8-1-1.3
	c-1.3,0.8-2.7,1-4.2,1.1c-3.7,0.2-7.4,0.3-11.2,0.1c-0.8,0-1.5-0.2-2.3-0.4c-0.3-0.1-0.7-0.2-1-0.4c-0.4-0.2-0.9-0.5-0.8-1
	s0.7-0.6,1.2-0.6c1,0,2.1,0,3.1,0.1c1.3,0.1,2.6,0.2,3.9,0.3c2.6,0.2,5.2,0.6,7.9,0.5c0.8,0,1.7,0,2.5-0.4c-0.2-0.8-0.7-1.3-1.2-1.9
	c-0.3-0.3-0.8-0.2-1.2-0.2c-1,0.2-1.9,0.5-2.9,0.6c-1.2,0.2-2.4,0.3-3.5,0.4c-1,0.1-2.1,0.1-3.1,0.2c-1.7,0.2-3.3,0.1-4.9-0.4
	c-0.5-0.1-0.9-0.5-1.3-0.7c-0.3-0.2-0.2-0.7,0.1-0.8c0.5-0.1,1.1-0.2,1.7-0.2c2.1,0,4.2,0.1,6.4,0.1c2.3,0,4.6-0.1,7-0.1
	c0.2,0,0.4-0.1,0.7-0.1c-0.3-0.8-0.7-1.3-1.2-1.9c-0.9,0.3-1.8,0.5-2.7,0.8c-1.2,0.4-2.5,0.6-3.8,0.6c-2.1,0.1-4.2,0.1-6.4,0.1
	c-1.2,0-2.3-0.4-3.5-0.8c-0.4-0.1-0.6-0.4-0.7-0.8c-0.1-0.5,0-0.9,0.5-1s1-0.2,1.5-0.2c1.4,0.1,2.9,0.3,4.3,0.4
	c0.6,0.1,1.1,0.1,1.7,0.1c2,0,3.9-0.1,5.9-0.1c0.7,0,1.4-0.1,2.2-0.3c-0.1-0.7-0.6-1.2-0.9-1.7c-1.4,0.2-2.6,0.4-3.9,0.6
	c-2.6,0.5-5.2,0.5-7.9,0.2c-0.5,0-1-0.2-1.5-0.3c-1.3-0.3-1.3-0.4-1.7-1.7c-0.7-0.2-1.5-0.4-2.2-0.7c-0.4-0.2-0.9-0.4-0.9-1
	c0-0.4,0.5-0.7,1.3-0.5c1.7,0.2,3.5,0.3,5.3,0.2c0.8,0,1.7-0.1,2.5-0.3c1.6-0.4,3.2-0.7,4.9-0.8c0.1,0,0.1-0.1,0.3-0.3
	c-0.2,0-0.4-0.1-0.6-0.1c-1.6,0.1-3.2,0.2-4.8,0.3c-1.4,0.1-2.7-0.1-4-0.5C4.1,80.6,3.5,80,3,79.3c-0.2-0.3,0-0.7,0.3-0.7
	c0.2,0,0.3-0.1,0.5,0c0.8,0.1,1.7,0.2,2.4,0.4c1.7,0.5,3.4,0.4,5.1,0.1c0.9-0.2,1.7-0.2,2.7,0.1c-0.2-0.6-0.6-0.8-1-1.1
	c-1.2-0.8-2.5-1.5-3.6-2.4c-0.7-0.5-1.3-1.2-1.9-1.8c-0.2-0.2-0.2-0.5-0.3-0.8c0.8-0.5,1.4,0.3,2.2,0.1c0.1-0.6,0.3-1.3,0.4-1.9
	c-0.4-0.5-0.8-1-1.1-1.5c-0.1-0.2-0.2-0.5-0.1-0.7c0.1-0.3,0.6-0.5,0.9-0.4c0.5,0.2,1,0.5,1.5,0.7c0.6-0.4,0.4-1.3,1.2-1.6
	c0.1,0.2,0.4,0.3,0.5,0.5c0.4,1,0.6,2.1,0.6,3.2c0,0.3,0,0.6,0.1,0.9c0.5,1.7,1.1,3.4,1.6,5.2c0,0.1,0.1,0.1,0.2,0.2
	c0.3-0.1,0.2-0.4,0.2-0.6c-0.2-2.5-0.6-5-1.4-7.4c-0.4-1.1-0.5-2.2-0.7-3.3c0-0.1,0.1-0.2,0.2-0.5c0.6,0.4,0.7,1.1,1,1.6
	s0.6,1.1,0.9,1.6s0.3,1.2,0.8,1.8c0.2-1.1-0.2-2-0.3-2.9c-0.1-0.8-0.5-1.6-0.4-2.6c1,0.1,1.3,0.8,1.6,1.4c0.3,0.6,0.5,1.2,0.8,2
	c0.3-0.4,0.2-0.9,0.3-1.2c0.1-0.3,0.5-0.5,0.7-0.2c0.2,0.2,0.5,0.4,0.6,0.7c0.2,0.7,0.3,1.4,0.5,2.1c0.1,0.6,0.2,1.2,0.3,1.8
	c0,0.1,0.3,0.2,0.5,0.4c0.1-0.4,0.2-0.6,0.2-0.9c0.1-1.5-0.2-3-0.7-4.4c-0.1-0.3-0.2-0.6,0-0.9c0.2-0.2,0.6-0.1,1,0.2
	c0.6,0.4,1,1,1.2,1.7c0.5,1.5,0.7,3,0.4,4.6c-0.1,0.4-0.1,0.7-0.2,1.1c-0.2,1.2-0.2,2.4,0.1,3.7c0.3,1,0.3,2.1,0.2,3.1
	c-0.1,2.1-0.3,4.2-1.3,6.2c0.3,0.5,0.6,1,1,1.3c0.4-0.1,0.3-0.3,0.3-0.5c0.3-1.3,0.4-2.5,0.8-3.8c0.6-2.3,0.7-4.7,1-7.1
	c0.1-1,0.3-2,0.4-3.1c0-0.3,0.1-0.6,0.3-0.9c0.3-0.6,1-0.7,1.4-0.2c0.3,0.3,0.5,0.8,0.6,1.2c0.1,1,0.2,2,0.1,2.9
	c-0.4,4.3-1.3,8.5-3.1,12.4c-0.1,0.2-0.2,0.4-0.3,0.6c0.4,1,1.3,1.8,1.9,2.7c0.2,0.2,0.4,0.4,0.8,0.7c0.1-0.6,0.3-1,0.4-1.5
	c0.6-3.5,1.1-6.9,1.6-10.4c0.2-1.4,0.4-2.9,0.5-4.3c0.1-0.7,0.3-1.4,0.9-1.9c0.5-0.4,1-0.3,1.3,0.2c0.4,0.7,0.5,1.6,0.5,2.4
	c0,1-0.1,2.1-0.1,3.1c-0.1,1.4-0.3,2.8-0.5,4.2c-0.4,2.5-1.4,4.9-2.2,7.2c-0.4,1-0.7,1.9-1.1,2.8c0.2,0.7,0.7,1.1,1.1,1.6
	s0.8,0.9,1.1,1.3c0.4,0,0.4-0.2,0.4-0.4c0.5-3.2,1.1-6.3,1.7-9.5c0.1-0.8,0.2-1.5,0.3-2.3c0.2-1.4,0.4-2.8,0.6-4.1
	c0.1-0.5,0.2-0.9,0.4-1.3c0.4-1,1.4-1.3,2.2-0.5c0.3,0.2,0.5,0.6,0.6,0.9c0.2,1.5,0.8,3,0.6,4.6c-0.2,1.7-0.4,3.4-0.8,5
	c-0.8,3.1-1.8,6.3-3.2,9.2c-0.5,1.1-0.4,1.2,0.6,2c0.2-0.4,0.4-0.7,0.5-1.1c0.8-2.4,1.6-4.7,2.3-7.1c0.5-1.6,0.6-3.3,0.7-5
	c0-1.3,0.3-2.6,0.9-3.7c0.5-1,1.3-1.2,2.2-0.7c0.5,0.3,0.7,0.6,0.6,1.1c-0.1,0.5-0.2,1-0.3,1.5c-0.3,1.8-0.6,3.6-1,5.3
	c-0.5,2.9-1.7,5.5-2.9,8.1c-0.5,1.1-1.1,2.1-1.7,3.2c1.1,1.3,2.2,2.5,3.4,3.8c0.1-0.4,0.2-0.7,0.3-0.9c0.4-2,1.1-3.9,1.7-5.8
	c1.1-3.9,1.8-7.8,1.5-11.9c0-0.5,0-0.9,0-1.4c0.1-1.1,0.6-1.4,1.7-1.3c0.2,0,0.4,0.1,0.6,0.2c0.1,0.3,0.3,0.7,0.3,1
	c0.2,2.1,0.3,4.1,0.1,6.2c-0.4,3.6-1.5,7.1-2.7,10.5c-0.4,1.1-1,2-1.5,3.1c-0.3,0.5-0.6,1.1-0.9,1.6c0.4,0.6,0.9,1.1,1.5,1.5
	c1-1.3,1.8-2.6,2.2-4.1c0.7-2.4,1.3-4.8,1.5-7.3c0-0.5,0.3-0.9,0.7-1.1c0.7-0.3,1.4-0.1,1.6,0.7c0.1,0.3,0.1,0.7,0.1,1.1
	c0,1.4,0,2.8-0.4,4.2C46.8,102.4,46.8,102.7,46.8,102.9c-0.3,0.1-0.3,0.4-0.3,0.7c-0.4,0.1-0.3,0.4-0.3,0.6
	c-0.1,0.2-0.3,0.3-0.4,0.5c-0.3,0.5-0.6,1-0.9,1.4c-0.9,1.2-1.9,2.5-2.8,3.7c0.3,0.4,0.5,0.8,1.1,0.7c0.8-1.6,1.7-3.2,2.5-4.9
	c0.1-0.2,0-0.6,0.1-0.9c0.5,0.1,0.4-0.3,0.4-0.5c0.3-0.1,0.3-0.3,0.4-0.6C46.8,103.4,46.9,103.2,46.8,102.9z M59,74.2l-0.1,0.1
	c0,0-0.1,0-0.1-0.1C58.9,74.2,59,74.2,59,74.2c0,0.1,0,0.2,0,0.3C59.1,74.4,59,74.3,59,74.2z M78.5,99.6c-0.1,0-0.2,0.1-0.2,0.1
	C78.3,99.6,78.4,99.6,78.5,99.6c0.2-0.1,0.4-0.2,0.7-0.3c1.5-0.4,2.9-1,3.6-1.5c-1.3,0.3-2.5,0.7-3.5,1.3c0,0,0,0.2,0,0.3
	C78.9,99.2,78.6,99.1,78.5,99.6z M51.2,13.5c0.2-0.3,0.3-0.6-0.1-0.8c0-0.1,0.1-0.2,0-0.3c-0.1-0.1-0.2-0.1-0.3-0.2
	c0,0.1-0.1,0.2,0,0.3c0.1,0.1,0.2,0.2,0.3,0.2C51.1,13,51.1,13.2,51.2,13.5c0.1,0,0.2,0.1,0.3,0.1c0,0,0.1,0,0.1-0.1
	C51.4,13.5,51.3,13.5,51.2,13.5z M65.5,17.4c-0.4,0-0.4,0.3-0.4,0.6c-1.1,1.2-1.2,1.4-1.3,2.4c0.6-0.7,1.2-1.4,1.4-2.3
	C65.6,17.9,65.6,17.6,65.5,17.4c0.3,0,0.3-0.2,0.2-0.4h-0.1C65.6,17.1,65.6,17.3,65.5,17.4z M52.8,46.7c-0.1,0-0.2,0-0.2,0
	C52.6,46.8,52.7,46.8,52.8,46.7c-0.2,0.5,0.1,0.5,0.4,0.5c0.1,0.4,0.5,0.2,0.8,0.4c0.1,0,0.2,0.1,0.1,0c0.1,0,0,0-0.2,0
	c-0.1-0.4-0.4-0.4-0.8-0.4C53,47.1,52.9,46.9,52.8,46.7z M43.5,50.1c-0.2-0.4-0.6-0.1-0.9-0.1c0-0.1,0-0.4,0-0.4
	c-0.2-0.1-0.5-0.4-0.8-0.2c0,0.6,0.6,0.3,0.8,0.6C42.9,50,43.2,50,43.5,50.1c0.2,0.4,0.3,0.4,0.8,0.1c-0.1,0.1-0.1,0.3-0.2,0.5
	c0.2,0.1,0.4,0.2,0.8,0.5c-0.3-0.4-0.4-0.7-0.6-0.9C44,50.2,43.8,50.1,43.5,50.1z M72,51.9c-0.3,0-0.6-0.1-0.6,0.3
	c-0.3-0.1-0.6-0.1-0.6,0.3c-0.7,0.1-0.7,0.1-1.4,1c0.6-0.5,1.2-0.5,1.4-1c0.3,0,0.5,0.1,0.6-0.3C71.6,52.3,71.9,52.3,72,51.9
	c0.1-0.1,0.2-0.1,0.3-0.1l-0.1-0.1C72.2,51.8,72.1,51.8,72,51.9z M64.7,127.6c-0.4,0-0.4,0.2-0.4,0.5c-0.2,0.1-0.4,0.2-0.5,0.3
	c-0.2,0.2-0.4,0.4-0.6,0.6c0,0.3-0.1,0.7-0.1,1c-0.2,0.1-0.3,0.2-0.5,0.3c-0.1,0.2-0.3,0.3-0.4,0.5c0,0.1,0,0.2,0,0.2s0,0.1,0.1,0.1
	V131c0-0.1,0-0.2,0-0.3c0.3-0.1,0.4-0.2,0.3-0.6c0.2-0.1,0.3-0.2,0.5-0.3c0-0.3,0.1-0.7,0.1-1c0.7,0,0.9-0.1,1.1-1
	C64.6,128,64.6,127.7,64.7,127.6c0-0.1,0.1-0.2,0.1-0.3c0,0,0-0.1-0.1-0.1C64.7,127.3,64.7,127.4,64.7,127.6z M60.9,133.1
	c0.1,0,0.2,0,0.3,0C61.1,133.1,61,133.1,60.9,133.1c0,0.1,0,0.2,0,0.3l0.1,0.1v-0.1C61,133.2,61,133.1,60.9,133.1z M68.4,87.9
	c-0.3,0.4-0.3,0.8,0.1,1.2c0,0.3,0.1,0.5,0.1,0.9c0.3-0.5,0.1-0.7-0.2-0.9C68.4,88.7,68.4,88.3,68.4,87.9c-0.1-0.1-0.2-0.1-0.2-0.1
	s0-0.1-0.1-0.1H68c0.1,0,0.1,0,0.2,0.1C68.3,87.8,68.3,87.9,68.4,87.9z M37.8,113.2c0.2-0.3,0.6-0.3,0.9-0.3c0-0.3,0.6-0.3,0.5-0.7
	c0.2,0,0.5,0,0.7,0c0,0,0,0,0-0.1c-0.2,0-0.5,0-0.7,0c-0.2,0.2-0.6,0.2-0.5,0.7C38.1,112.6,38,112.6,37.8,113.2
	c-0.4-0.2-0.8-0.4-1.2,0.1c-0.2,0-0.5,0-0.8,0.1c0.4,0.3,0.6,0.2,0.8-0.1C37,113.2,37.4,113.2,37.8,113.2z M58.8,53.4
	c0-0.1,0.1-0.3,0.1-0.4c0,0,0,0-0.1,0C58.8,53.1,58.8,53.3,58.8,53.4c0.1,0.1,0.2,0.3,0.3,0.5C59.3,53.5,58.9,53.5,58.8,53.4z
	 M36.9,95.1c0.5-0.2,0.3-0.6,0.2-1c0.4,0,0.5-0.2,0.6-0.5c0-0.1,0-0.2,0,0c0-0.2,0,0,0,0.1c-0.2,0.2-0.4,0.3-0.6,0.5
	C37.1,94.4,37,94.8,36.9,95.1c0,0.1,0,0.2,0,0.3C36.9,95.2,36.9,95.2,36.9,95.1z M67.5,121.4c-0.1,0.3-0.2,0.6-0.3,0.8
	c0,0.1-0.1,0.1-0.1,0.2c0-0.1,0-0.2,0-0.3C67.6,122,67.5,121.6,67.5,121.4c0-0.1,0.1-0.2,0.1-0.2C67.6,121.2,67.5,121.3,67.5,121.4z
	 M88.3,103.1c0.2,0,0.3,0,0.5,0c0-0.1,0-0.1-0.1-0.2C88.7,102.9,88.5,103,88.3,103.1c-0.1,0-0.2,0-0.3,0.1c-0.1,0-0.1,0.1-0.1,0.2
	c0.1,0,0.2,0.1,0.3,0S88.3,103.2,88.3,103.1z M47.7,14.7c0-0.1,0-0.2,0.1-0.5C47.8,14.5,47.7,14.6,47.7,14.7
	c0.3,0.2,0.5,0.5,0.8,0.7c0,0.4,0.2,0.6,0.5,0.7c-0.2-0.2,0-0.7-0.5-0.7c0.1-0.3,0-0.6-0.3-0.7C48.1,14.7,47.9,14.8,47.7,14.7z
	 M66,58.7c0.3-0.2,0.6-0.4,0.9-0.6c0.3-0.1,0.6-0.2,0.6-0.7c-0.3,0.2-0.5,0.4-0.7,0.6C66.2,58.2,66.1,58.3,66,58.7
	c-0.1,0-0.1-0.1-0.2-0.1c0,0-0.1,0.1-0.1,0.2h0.1C65.9,58.8,66,58.8,66,58.7z M73.6,51c0.4,0,0.8,0,0.8-0.6
	C74,50.5,73.6,50.6,73.6,51c-0.1,0-0.4-0.1-0.3,0.2C73.4,51.2,73.5,51.1,73.6,51z M87.6,94.1c0.4,0,0.7-0.1,1-0.8
	C88.1,93.6,87.6,93.6,87.6,94.1c-0.4-0.1-0.6,0.1-0.7,0.6C87.2,94.5,87.4,94.3,87.6,94.1z M29.3,85.1c-0.3,0.1-0.5,0.3-0.3,0.6
	C29.1,85.5,29.2,85.3,29.3,85.1c0-0.2,0-0.4,0-0.6h-0.1C29.2,84.8,29.3,84.9,29.3,85.1z M59.8,57.2c0.1,0.1,0.1,0.2,0.2,0.3v-0.1
	C59.9,57.4,59.8,57.3,59.8,57.2c0-0.3,0.2-0.8-0.2-1.1C59.5,56.6,59.5,56.9,59.8,57.2z M41,32.7c0-0.1,0-0.2,0-0.2
	c-0.1,0-0.2,0-0.4,0c0.1,0.1,0.1,0.2,0.2,0.2S41,32.7,41,32.7c0.4,0.6,0.6,0.7,1.3,0.9c0,0.5,0.2,0.9,0.6,1.2
	c0.8,0.6,1.7,1.2,2.5,1.8c0.1,0.1,0.3,0.1,0.8,0.2c-1.3-1.2-2.4-2.2-3.6-3.1c-0.1-0.1-0.2,0-0.3,0C42.1,33.1,41.6,32.8,41,32.7z
	 M21.9,109.4c-0.4,0.1-0.8,0.2-1.2,0.3C21.2,109.8,21.6,110,21.9,109.4c0.3,0,0.7,0.1,1,0.1c0-0.1,0-0.1,0-0.2
	C22.6,109.4,22.2,109.4,21.9,109.4z M35.1,123.4c-0.5,0-1,0.1-1.5,0.1c-0.1,0-0.2,0.1-0.5,0.4c0.8-0.1,1.3,0,1.8-0.3
	C35,123.6,35,123.4,35.1,123.4c0.2,0,0.4,0.2,0.7-0.2C35.5,123.3,35.3,123.3,35.1,123.4z M75.3,56.3c-0.8,0.2-1.4,0.8-2.3,1.5
	C74.3,57.4,74.4,57.3,75.3,56.3c0.4,0.1,0.7-0.1,1-0.7C75.7,55.9,75.4,55.9,75.3,56.3z M45.6,23.8c-0.2-0.5-0.6-0.7-1.1-0.8
	C44.7,23.4,45,23.8,45.6,23.8c0.8,1.1,0.9,1.1,1.9,1.5C46.8,24.4,46.7,24.4,45.6,23.8z M48,39.7c0.1,0.1,0.1,0.2,0.2,0.3l0.1-0.1
	C48.2,39.8,48.1,39.7,48,39.7c-0.7-0.9-1.4-1.3-2.5-1.6c0.1-0.2,0-0.3-0.2-0.3c0,0-0.1,0-0.1,0.1c0.1,0.1,0.1,0.1,0.2,0.2h0.1
	C46.4,39,46.9,39.3,48,39.7z M46.2,44.2c0,0.1,0,0.2,0.1,0.3h0.1C46.3,44.4,46.2,44.3,46.2,44.2c-0.8-0.4-1.5-0.9-2.3-1.3
	c-0.1-0.1-0.3-0.1-0.7-0.2c0.7,0.8,1.5,1.1,2.2,1.4C45.7,44.3,45.9,44.2,46.2,44.2z M56.7,47.8c0-0.3,0.1-0.5,0.1-0.8
	c-0.1,0-0.1,0-0.2,0C56.7,47.2,56.7,47.5,56.7,47.8c0.1,0.4,0.1,0.8,0.2,1.2c0.1,0.4,0.1,0.7,0.2,1.1c0.1,0.4,0,0.8,0.6,1
	C57.5,50,57.3,49,57.1,48C57.1,47.9,56.9,47.8,56.7,47.8z M67.3,36.6c-2,0.8-2.2,0.9-2.9,1.9c1.1-0.7,2.2-1,3.1-1.8
	c0.8-0.3,0.8-0.3,1.5-1.2C68.1,36,67.6,36.1,67.3,36.6z M49.6,29.4c0,0.1,0,0.2,0,0.3h0.1C49.6,29.6,49.6,29.5,49.6,29.4
	c-0.8-1.6-1.3-2.2-2.2-2.6c0.6,1.1,1.2,1.9,2,2.6C49.3,29.5,49.5,29.4,49.6,29.4z M48.1,57c0.1,0,0.3-0.1,0.4-0.1c0,0,0,0,0-0.1
	C48.4,56.8,48.2,56.9,48.1,57c0-0.1,0.1-0.3,0.2-0.5c-1.2-0.6-2.3-1.3-3.5-1.9c-0.2-0.1-0.5-0.2-0.6,0.3c0.3,0.2,0.5,0.4,0.8,0.6
	C46,55.9,47.1,56.4,48.1,57z M53.9,77.3c-0.3-0.2-0.7-0.4-1-0.6c-0.9-1.2-2.4-1.8-3.4-2.8c-0.8,0-1.1-0.6-1.6-1
	c-0.1-0.1-0.2,0-0.5,0c0.1,0.2,0.2,0.3,0.3,0.5c1.4,1.5,3.3,2.4,5.1,3.3c0,0,0.1,0,0.2,0C53,77.1,53.4,77.3,53.9,77.3
	c0,0.2,0,0.3,0.1,0.3c2,1.3,4.1,2.3,6.3,3.1c0.1,0,0.3,0,0.6,0c-0.5-0.2-0.8-0.4-1.1-0.6c-1.5-0.7-3.1-1.4-4.5-2.3
	C54.9,77.5,54.3,77.4,53.9,77.3z M62.1,37.2c2.1-0.8,4-1.9,5.8-3.2c0.1-0.1,0.1-0.2,0.3-0.6c-0.6,0.4-1,0.6-1.4,0.8
	c-0.5,0.2-0.9,0.4-1.4,0.7c-1,0.6-2,1.2-3,1.8C62.2,36.8,62.2,37.1,62.1,37.2c-0.1,0.1-0.2,0.1-0.3,0.1l0.1,0.1
	C61.9,37.3,62,37.3,62.1,37.2z M68.2,55.6c-0.1,0-0.2,0-0.3,0c-1.9,0.9-3.7,1.8-5.7,2.4c-0.1,0-0.2,0.1-0.3,0.1
	c-0.2,0.1-0.3,0.5-0.2,0.8s0.4,0.3,0.6,0.3c0.2-0.1,0.5-0.2,0.7-0.3c1.6-1,3.3-1.9,4.9-2.9C68.1,55.9,68.1,55.7,68.2,55.6
	c0.3,0,0.6-0.1,0.6-0.6C68.6,55.2,68.4,55.4,68.2,55.6z M48.1,41.1L48,41c-0.1,0-0.2,0-0.2,0v0.1c0,0,0.1,0.1,0.1,0
	C48,41.2,48.1,41.1,48.1,41.1c0.1,0.1,0,0.4,0.1,0.5c0.6,0.5,1.1,1.1,1.8,1.5c1.7,1.3,3.4,2.7,5.6,3.2c0.2-0.6,0-1.2-0.2-1.7
	c-0.8-0.3-1.5-0.5-2.2-0.9C51.5,42.9,49.8,42,48.1,41.1z M60.2,116.5c0.3,0.1,0.5,0.3,0.6,0.6c0.2,0.4,0.3,0.8,0.6,1.1
	c1.1,1.5,2.2,2.9,3.4,4.4c0.2,0.2,0.4,0.3,0.8,0.6c0.5-1.2,0.9-2.3,1.4-3.4c0.5-1.1,0.9-2.1,1-3.4c-1.4,0-2.6,0-3.9-0.1
	c-1.2-0.1-2.5-0.3-3.8-0.4C60.2,116.1,60.2,116.3,60.2,116.5c0,0.1-0.1,0.1-0.2,0.2v0.1C60.1,116.7,60.1,116.6,60.2,116.5z
	 M60.8,113.9c1.5,0.3,2.9,0.7,4.4,1c1.1,0.3,2.2,0.3,3.4,0c0-0.9,0.7-1.7,0.3-2.6c-2.4-0.5-4.9-0.8-7-2.5c0.1-0.5,0.2-1.1,0.4-1.8
	c1,0.4,1.8,0.8,2.6,1.2c1.2,0.6,2.3,1.1,3.5,1.6c0.2,0.1,0.5,0.1,0.8,0.1c0-0.9,0.3-1.8,0.1-2.7c-0.8-0.3-1.6-0.7-2.4-1
	c-1.3-0.5-2.7-1.1-4-1.7c-0.3-0.1-0.6-0.3-0.6-0.6v-0.1c0,0-0.1,0-0.2,0.1c0,1.1,0.1,2.2-0.1,3.3c-0.2,1.5-0.6,2.9-0.9,4.4
	C60.9,113.2,60.9,113.6,60.8,113.9c0,0.2-0.1,0.4-0.2,0.5h0.1C60.8,114.3,60.8,114.1,60.8,113.9z M68.5,96.1c-0.5-2.8-1.2-5.3-1.7-8
	c-3.6,0-7.1-0.3-10.6-1.1c0.1,0.6,0.6,0.9,0.9,1.3c0.3,0.3,0.6,0.5,0.9,0.8c2.4,2.2,5,4.2,7.7,6C66.6,95.6,67.4,95.9,68.5,96.1z
	 M69,85.2c1.7-0.4,2.8-1.4,4-2.3c3.4-2.4,6.5-5.4,7.4-7c-0.4,0.1-0.7,0.2-0.9,0.3c-1,0.4-2.1,0.9-3.1,1.4c-2.7,1.2-5.4,2.2-8.4,2.6
	c-0.1,0-0.2,0.1-0.3,0.2C68.2,81.9,68.6,83.4,69,85.2z M62.6,128.6c0.1-0.1,0.2-0.1,0.2-0.2c0.4-0.8,0.9-1.5,1.3-2.3
	c0.8-1.5,0.8-1.5-0.6-2.4c-0.9-0.6-1.7-1.1-2.2-2.1c-0.1-0.3-0.4-0.5-0.6-0.7c-0.3-0.2-0.6-0.4-0.9-0.6c-0.3-0.2-0.5-0.5-0.8-0.8
	c-0.4,0.8-0.8,1.4-1.2,2.1c-0.4,0.7-0.9,1.3-0.9,2C58,124.9,61.3,127.8,62.6,128.6z M50.5,105.6c-0.5,1.6-0.8,3.1-1.4,4.6
	c-0.5,1.5-1.2,3.1-1.8,4.5c0.3,0.5,0.5,0.9,1.1,0.9c0.4-0.6,0.8-1.2,1.2-1.7c0.7-0.9,1.2-1.8,1.6-2.8c0.9-2.2,1.2-4.6,1.2-7
	c0-1.9,0-3.7,0-5.6c0-0.2,0-0.5,0-0.8c-0.8,0.7-1.3,1.4-1.3,2.3c0,0.7,0,1.3,0,2c0.3,0.2,0.6,0.4,1,0.6c0.2,1.1,0,2.1-0.2,3.1
	c0,0.1-0.1,0.1-0.3,0.2C51.3,105.9,50.9,105.8,50.5,105.6z M69.4,105.9c0.3-1.5,0-2.8,0-4.2c0-0.3-0.2-0.6-0.3-0.9
	c-1.4,0-2.7,0-4.1-0.1c-1.3-0.1-2.6-0.4-4-0.7c0.3,0.8,0.5,1.5,0.7,2C64.4,103.4,66.8,104.6,69.4,105.9z M72.3,100.7
	c1.9-0.4,3.6-1,5.2-1.9c1.6-0.8,3.4-1.3,4.9-2.6c-1.4,0-2.6,0-3.7,0c-1.1,0.1-2.3,0.1-3.4,0.3c-1.2,0.2-2.4-0.2-3.6,0.2
	C71.8,98,71.9,99.3,72.3,100.7z M91,96.6c0-0.1,0-0.2,0-0.2c-1.3-0.2-2.6-0.2-3.7,0.5c-1.9,1-3.8,1.9-5.7,2.7c-2.8,1.1-5.5,2-8.5,2
	c-0.2,0-0.5,0-0.6,0.3c0.7,0.6,0.7,0.6,1.3,0.6c0.9,0,1.9-0.1,2.8-0.2c2.3-0.3,4.6-0.8,6.8-1.6C86,99.7,88.5,98.2,91,96.6z M58.8,47
	c0.1,0.1,0.2,0.2,0.3,0.2c1.1,0,2.2-0.1,3.2-0.6c1.3-0.6,2.6-1.3,3.8-2.1c1.9-1.2,3.6-2.8,5.1-4.4c0.1-0.1,0.4-0.2,0.1-0.5
	c-4.1,2.7-4.8,3.5-12.8,5.8C58.6,45.9,58.7,46.5,58.8,47z M73.4,48c-0.2,0-0.3,0-0.4,0c-0.7,0.2-1.2,0.6-1.7,1
	c-2.8,2.2-5.8,4.2-9.1,5.4c-0.3,0.1-0.7,0.3-1,0.4c-0.1,0.1-0.2,0.2-0.3,0.4c0.2,0.4,0.3,0.8,0.5,1.3c1.3-0.4,2.5-1,3.5-1.7
	c3-1.9,5.7-4.3,8.4-6.6C73.3,48.3,73.3,48.2,73.4,48z M64.9,70.5c3-0.6,7.4-3.5,8.3-5.5c-1.5,0.7-2.9,1.4-4.4,2.1
	c-1.4,0.7-3,1.2-4.4,2C64.6,69.6,64.7,70,64.9,70.5z M60.6,54c0.5-0.2,0.8-0.3,1.1-0.5c0.3-0.1,0.5-0.3,0.8-0.5
	c0.5-0.4,1-0.7,1.5-1.1c0.4-0.3,0.9-0.7,1.3-1c0.2-0.2,0.4-0.3,0.3-0.7c-0.2,0-0.4,0-0.6,0c-1.6,0.1-3.2,0.4-4.8,0
	c-0.2,0-0.4,0.1-0.6,0.2C59.8,51.6,60.1,52.7,60.6,54z M44.1,111.6c0.6,0.6,1.1,1.2,1.7,1.8c0.2,0.2,0.4,0.2,0.7,0.4
	c0.2-0.6,0.4-1.1,0.5-1.6c0.5-1.9,0.9-3.8,1.3-5.7c0,0,0-0.1-0.1-0.1c0,0-0.1,0-0.2,0c-0.5,0.9-1.1,1.8-1.7,2.7
	C45.7,109.9,44.9,110.7,44.1,111.6z M46,117.7c-1.6,1.5-3.6,2.4-5.4,3.6c1.3,0,2.5-0.4,3.7-0.7c1.3-0.3,2.6-0.2,3.9-0.8
	C47.5,119,46.8,118.4,46,117.7z M58.3,43.6c1.6-0.8,3.2-1.5,4.7-2.3c1.5-0.9,2.9-1.8,4.1-3c-1.5,0.6-2.9,1.4-4.4,2.1
	C61.2,41,59.6,41.5,58,42C58.1,42.6,58.2,43.1,58.3,43.6z M69.3,58.5C68.2,59,67.1,59.7,66,60c-1.2,0.4-2.5,0.5-3.7,0.7
	c0.1,1.3,0.1,1.3,0.6,2.1c1.3-0.2,2.3-1,3.3-1.8c0.4-0.3,0.7-0.6,1.1-0.8C68.2,59.8,68.8,59.3,69.3,58.5z M56.7,52.9
	c0.2-1,0-1.7-0.4-2.5c-0.3-0.1-0.6-0.3-0.9-0.3c-1.8-0.2-3.5-0.8-5.2-1.5c-0.2-0.1-0.4-0.1-0.6-0.2C51.9,50.2,54.1,51.7,56.7,52.9z
	 M54.4,33.4c0-0.3,0.1-0.6,0-0.9c0-0.4,0-0.8-0.1-1.2c-0.1-0.5-0.3-0.8-0.8-1.1c-0.6-0.3-1.1-0.6-1.6-0.9c-0.4-0.2-0.9-0.5-1.4-0.4
	C51.4,30.8,53,32.6,54.4,33.4z M56.1,21.1c-0.1,0.7-0.1,1.5,0,2.2c1.7-0.9,4-2.8,4.6-4C59.1,19.7,57.8,20.8,56.1,21.1z M12.4,83.3
	c1.5,0.3,2.8,0.1,4.2,0c-0.4-0.8-0.9-1.3-1.5-1.8C14.3,82.1,13.5,82.7,12.4,83.3z M19.7,75.8c-0.6,1.9-1.1,3.6-1.5,5.2
	c-0.1,0.3,0.2,0.6,0.6,0.5c0.8-1.3,0.9-2.8,1.2-4.2C20.1,76.9,20.1,76.5,19.7,75.8z M72.1,74.2c0-0.1-0.1-0.1-0.1-0.2
	c-1.8,0.7-3.6,1.4-5.4,2.2c0.1,0.3,0.2,0.6,0.4,0.9c0.3-0.1,0.5-0.1,0.7-0.2c1.4-0.7,2.7-1.5,4-2.2C71.8,74.5,72,74.3,72.1,74.2z
	 M56.4,72.9c-1-1.1-4.9-4-6.1-4.7c-0.1,0-0.2,0-0.4,0.1C52,69.9,53.9,71.9,56.4,72.9z M60.4,30.7c-0.6,0.1-1.2,0.4-1.8,0.4
	c-0.6,0.1-1.3-0.4-2-0.1c-0.1,0.6,0,1.2,0.3,1.9C58.3,32.2,59.5,31.7,60.4,30.7z M82.4,103.3c-0.6,0.1-1.3,0.3-1.9,0.4
	c-2.1,0.5-4.1,1-6.2,1c-0.2,0-0.4,0.1-0.6,0.1C76.7,105.4,79.6,104.8,82.4,103.3z M69.2,39.7c0.2-0.1,0.4-0.2,0.6-0.4
	c1-0.9,2-1.8,3-2.6c0.2-0.2,0.4-0.4,0.6-0.7c0.1-0.2,0.2-0.3-0.1-0.5C71.9,36.8,70.3,38.1,69.2,39.7z M59.4,23.6
	C58,24,57,24.4,56,25c0,0.4,0.1,0.7,0.1,1.1C57.5,25.5,58.2,25,59.4,23.6z M57.1,35.4c1.1-0.4,2-0.8,2.7-1.7c-1.1,0-2,0.1-2.9,0.4
	C57,34.5,57,34.8,57.1,35.4z M83.7,76.9c0.6-0.7,1.2-1.3,1.8-2c0.5-0.5,1-1,1.5-1.6c0.1-0.1,0.1-0.3,0.2-0.5c-1.2,1-2.3,2.1-3.4,3.2
	c-0.1,0.1-0.2,0.2-0.3,0.4C83.3,76.7,83.5,76.9,83.7,76.9z M44.6,46.7c0.1-0.1,0.1-0.2,0.2-0.3c-0.6-0.5-1.1-1-1.7-1.5
	c-0.2-0.2-0.5-0.3-0.8-0.5c-0.1,0-0.4,0-0.4,0.1c0,0.2-0.1,0.4,0,0.5c0.2,0.2,0.5,0.4,0.7,0.5C43.3,46,43.9,46.5,44.6,46.7z
	 M56.2,90.2c0.1-0.3,0.1-0.3,0.1-0.3c0-0.1-0.1-0.2-0.2-0.3C55,88.9,54,88,53.2,86.9c-0.1-0.1-0.2-0.2-0.3-0.3
	c-0.2-0.1-0.3-0.2-0.6,0.1C53.5,88,54.7,89.1,56.2,90.2z M77.7,49.6c-1,0.8-2,1.6-2.9,2.3c0,0,0,0.2,0,0.3
	C75.9,51.7,77,50.9,77.7,49.6z M56.4,16.8c1.7-0.7,2.6-1.4,3-2.3C58.4,15.3,57.1,15.6,56.4,16.8z M50.5,61.8c0.9,1,1.3,1.3,2.5,1.7
	C51.9,62.1,51.4,61.8,50.5,61.8z M62.2,31.2c1.1-0.2,2.1-0.7,3.2-1.8C64,29.8,63.1,30.3,62.2,31.2z M66.2,12.9c-1.5,1-1.6,1.1-2,2.1
	C65.2,14.4,65.7,13.7,66.2,12.9z M20.8,82.1c-0.6,0.6-0.7,1-0.9,1.5c0.2,0.1,0.3,0.3,0.6,0.5C20.6,83.4,20.6,82.9,20.8,82.1z
	 M84.8,73.6c-0.7,0.3-1.2,0.8-1.5,1.5C83.8,74.6,84.3,74.1,84.8,73.6z M78.1,75.7c-1.2,0.1-1.2,0.1-2,0.8
	C76.9,76.4,77.5,76.3,78.1,75.7z M91.4,93c-1.1,0-1.4,0.8-2.3,1.4C90.3,94,90.3,94,91.4,93z M78.3,39.1c-0.8,0.3-0.8,0.3-1.5,1.5
	C77.6,40.2,78,39.7,78.3,39.1z M78.1,52.9c-0.1-0.1-0.2-0.2-0.2-0.2c-0.4,0.4-1,0.6-1.1,1.3C77.2,53.7,77.6,53.3,78.1,52.9z
	 M47.1,82c0.4,0.4,0.8,0.8,1.7,0.8C48.2,82.1,47.6,82.1,47.1,82z M57.5,39.7c0.8,0.4,0.8,0.4,1.8-0.2C58.7,39.5,58.2,39.6,57.5,39.7
	z M12.9,93.5C12.9,93.4,12.9,93.4,12.9,93.5c-0.5-0.1-0.9-0.1-1.3-0.1c0,0,0,0,0,0.1C12,93.5,12.5,93.5,12.9,93.5z M45.6,30.5
	c-0.2-0.5-0.4-0.9-0.9-0.9C44.9,29.9,45.2,30.2,45.6,30.5z M81.1,93.2c0.4,0.1,0.8-0.1,1.1-0.3c0.1,0,0.1-0.2,0.1-0.3
	s-0.1-0.2-0.2-0.2C81.7,92.6,81.3,92.7,81.1,93.2z M45.5,41.2c0.1,0,0.1-0.1,0.1-0.1V41c-0.4-0.4-0.4-0.4-1.1-0.6
	C44.7,41,45.1,41.1,45.5,41.2z M50.9,120.5c0.4,0.7,0.4,0.7,1.1,1C51.6,121.1,51.3,120.8,50.9,120.5z M67.3,84.3
	c-0.3,0.5-0.2,0.9,0.3,1.3C67.5,85.1,67.4,84.7,67.3,84.3z M61.7,63.8c-0.1,0.8-0.1,0.8,0.5,1.4C62,64.6,61.9,64.2,61.7,63.8z
	 M36.4,96.8c-0.1,0-0.1-0.1-0.2-0.1c-0.1,0.1-0.1,0.3-0.1,0.4c0,0.2-0.3,0.3,0.1,0.5C36.3,97.4,36.3,97.1,36.4,96.8z M39.6,125.9
	c-0.4-0.1-0.8-0.4-1.1,0C38.9,125.9,39.3,125.9,39.6,125.9z M64.6,74.2c0-0.6-0.1-1-0.4-1.5C64.1,73.4,64.1,73.8,64.6,74.2z
	 M76,43.6c0.2-0.2,0.5-0.4,0.9-0.8C76.2,42.7,76.1,43.1,76,43.6z M77,59.1c-0.1-0.1-0.2-0.2-0.3-0.3c-0.2,0.2-0.4,0.4-0.6,0.6
	c0.1,0.1,0.1,0.1,0.2,0.2C76.5,59.4,76.8,59.2,77,59.1z M53.1,122.8c0.1-0.1,0.1-0.1,0.2-0.2c-0.2-0.2-0.3-0.3-0.5-0.5
	c-0.1-0.1-0.2,0-0.4-0.1c0,0.1,0.1,0.2,0.1,0.2C52.7,122.5,52.9,122.6,53.1,122.8z M95.1,96.6c0.3-0.2,0.6-0.4,1.1-0.7
	C95.4,95.8,95.1,96,95.1,96.6z M64,99.3c0,0.1-0.1,0.1-0.1,0.2c0.1,0.1,0.2,0.2,0.3,0.3c0.1,0,0.3,0,0.7-0.1
	C64.4,99.5,64.2,99.4,64,99.3z M11.9,96.9C11.9,96.8,11.9,96.8,11.9,96.9c-0.2-0.1-0.4-0.1-0.6-0.2c0,0.1,0,0.1,0,0.2
	C11.5,96.9,11.7,96.9,11.9,96.9z M90.6,102c0,0.1,0,0.1,0,0.2c0.2,0,0.4,0,0.7,0l0.1-0.2c0-0.1-0.1-0.2-0.2-0.2
	C91,101.8,90.8,101.9,90.6,102z M86.6,110.4c0.7,0.1,0.7,0.1,1-0.3C87.1,110.1,86.8,110.1,86.6,110.4z M58.7,102.3
	c0,0.1,0,0.3,0,0.4h0.1C58.8,102.6,58.8,102.4,58.7,102.3C58.8,102.3,58.7,102.3,58.7,102.3z M60.7,8.9c-0.3,0.3-0.5,0.3-0.5,0.4
	c-0.1,0.1,0,0.3,0,0.4c0.1-0.1,0.2-0.1,0.3-0.2C60.6,9.4,60.6,9.3,60.7,8.9z M21.3,112.2C21.3,112.2,21.3,112.1,21.3,112.2
	c-0.1-0.1-0.2-0.1-0.3-0.1v0.1C21.1,112.2,21.2,112.2,21.3,112.2z M41.1,24.1c-0.1,0.1-0.1,0.1-0.2,0.2c0.1,0.1,0.3,0.3,0.4,0.4
	c0.1,0,0.1-0.1,0.2-0.1C41.3,24.5,41.2,24.3,41.1,24.1z M43.4,21.9c0.1,0.3,0.1,0.8,0.6,0.4C43.8,22.2,43.6,22.1,43.4,21.9z
	 M86.4,71.9c0.1-0.1,0.1-0.1,0.2-0.2c-0.1,0-0.2-0.1-0.2,0S86.3,71.9,86.4,71.9C86.3,71.8,86.3,71.9,86.4,71.9z M73.8,61.7
	c0.1-0.1,0.2-0.2,0.3-0.3L74,61.3C73.9,61.4,73.8,61.5,73.8,61.7C73.7,61.6,73.8,61.7,73.8,61.7z M70.8,114v-0.1c0,0-0.1,0-0.1-0.1
	c0,0.1,0,0.1-0.1,0.2C70.8,114,70.8,114,70.8,114z M84.5,110.9c-0.1,0-0.1-0.1-0.2-0.1h-0.1l0.1,0.1C84.3,111,84.4,111,84.5,110.9z
	 M85.5,110.7c0.1,0,0.1-0.1,0.2-0.1l-0.1-0.1c-0.1,0-0.1,0.1-0.2,0.1C85.4,110.7,85.4,110.7,85.5,110.7z M56,37
	c0.1-0.3,0.1-0.4,0.1-0.6c0,0-0.1-0.1-0.2-0.1l-0.1,0.1C55.9,36.5,55.9,36.7,56,37z M67.1,15.9C67,15.8,67,15.7,67,15.6
	c-0.1,0.1-0.2,0.1-0.3,0.2l0.1,0.2C66.9,16,67,16,67.1,15.9z M20.4,106.6l-0.1-0.1h-0.1l0.1,0.1C20.3,106.7,20.3,106.6,20.4,106.6z
	 M58.2,116.6v-0.1C58.2,116.6,58.1,116.6,58.2,116.6c-0.1,0.1-0.1,0.2,0,0.2C58.2,116.7,58.2,116.7,58.2,116.6z M18,112.5
	C18,112.4,18,112.4,18,112.5c-0.1-0.1-0.1-0.1-0.2-0.1v0.1C17.9,112.5,18,112.5,18,112.5z M19.1,106.8L19.1,106.8L19.1,106.8
	L19.1,106.8z M59.7,117.6L59.7,117.6L59.7,117.6L59.7,117.6z M22.8,111.9L22.8,111.9L22.8,111.9L22.8,111.9z M71,111.5v-0.1V111.5
	L71,111.5z M45.5,47.2c-0.1,0-0.2-0.1-0.3-0.1l-0.1,0.1C45.3,47.2,45.4,47.3,45.5,47.2C45.5,47.3,45.5,47.2,45.5,47.2z M67.6,40.4
	c0,0-0.1,0-0.1,0.1c0,0,0,0.1,0.1,0.1s0.1-0.1,0.2-0.1C67.7,40.5,67.7,40.4,67.6,40.4z M56.5,13C56.5,13,56.4,13,56.5,13
	C56.4,13.1,56.4,13.1,56.5,13L56.5,13C56.5,13.1,56.5,13.1,56.5,13z M57.1,11.9C57.1,11.9,57.2,11.9,57.1,11.9
	c0.1-0.1,0.1-0.1,0.1-0.2h-0.1C57,11.9,57.1,11.9,57.1,11.9z M51.1,103.3l0.1-0.1c-0.1-0.1-0.2-0.1-0.2-0.2l-0.1,0.1
	C50.9,103.2,51,103.2,51.1,103.3z M86.1,95.1L86.1,95.1C86,95.2,86,95.2,86,95.3C86,95.2,86.1,95.2,86.1,95.1
	C86.1,95.2,86.1,95.1,86.1,95.1z M88.5,94.9c-0.1,0-0.1,0-0.2,0l0.1,0.1C88.5,95,88.5,94.9,88.5,94.9z M92.7,92.2
	c-0.1,0-0.2-0.1-0.2-0.1l-0.1,0.1l0.1,0.1C92.5,92.3,92.6,92.2,92.7,92.2z M57,90.5L57,90.5c-0.1,0.1-0.1,0.1-0.1,0.2
	C56.9,90.6,57,90.6,57,90.5C57,90.6,57,90.5,57,90.5z M60.9,86.6L60.9,86.6C60.8,86.6,60.8,86.6,60.9,86.6L60.9,86.6z M67.7,86.5
	v0.1C67.7,86.6,67.8,86.6,67.7,86.5C67.8,86.5,67.7,86.5,67.7,86.5z M17.4,78.5L17.4,78.5l-0.1,0.1L17.4,78.5z M61.9,67.9v-0.1h-0.1
	C61.9,67.8,61.8,67.9,61.9,67.9C61.8,67.9,61.9,67.9,61.9,67.9z M69.8,59.8v0.1h0.1C69.9,59.8,69.9,59.8,69.8,59.8
	C69.9,59.8,69.8,59.8,69.8,59.8z"/>
</svg>
